<?xml version="1.0" encoding="UTF-8"?>
<svg xmlns="http://www.w3.org/2000/svg" xmlns:xlink="http://www.w3.org/1999/xlink" width="22px" height="22px" viewBox="0 0 22 22" version="1.1">
<g id="surface1">
<path style=" stroke:none;fill-rule:nonzero;fill:rgb(0.392157%,0.392157%,0.392157%);fill-opacity:1;" d="M 10.648438 1.144531 L 11.320312 1.144531 L 11.726562 1.164062 L 12.222656 1.210938 L 12.605469 1.265625 L 13.003906 1.34375 L 13.441406 1.441406 L 13.761719 1.527344 L 14.332031 1.714844 L 14.628906 1.824219 L 15.027344 1.992188 L 15.398438 2.167969 L 15.652344 2.300781 L 15.882812 2.429688 L 16.105469 2.5625 L 16.367188 2.726562 L 16.632812 2.902344 L 16.839844 3.058594 L 16.972656 3.15625 L 17.117188 3.265625 L 17.269531 3.386719 L 17.425781 3.519531 L 17.535156 3.617188 L 17.644531 3.707031 L 17.644531 3.730469 L 17.6875 3.75 L 17.820312 3.882812 L 17.90625 3.960938 L 18.117188 4.167969 L 18.195312 4.257812 L 18.28125 4.34375 L 18.359375 4.433594 L 18.503906 4.597656 L 18.632812 4.753906 L 18.742188 4.894531 L 18.886719 5.082031 L 19.039062 5.289062 L 19.183594 5.5 L 19.316406 5.699219 L 19.402344 5.839844 L 19.503906 6.007812 L 19.679688 6.3125 L 19.886719 6.722656 L 20.054688 7.085938 L 20.195312 7.4375 L 20.304688 7.734375 L 20.460938 8.207031 L 20.546875 8.535156 L 20.65625 9.007812 L 20.746094 9.503906 L 20.800781 9.933594 L 20.835938 10.316406 L 20.84375 10.503906 L 20.855469 10.878906 L 20.855469 11.152344 L 20.84375 11.515625 L 20.8125 11.957031 L 20.757812 12.417969 L 20.667969 12.9375 L 20.570312 13.375 L 20.4375 13.859375 L 20.304688 14.265625 L 20.140625 14.695312 L 19.953125 15.125 L 19.800781 15.445312 L 19.710938 15.621094 L 19.546875 15.917969 L 19.414062 16.136719 L 19.261719 16.378906 L 19.050781 16.6875 L 18.898438 16.894531 L 18.742188 17.09375 L 18.621094 17.246094 L 18.480469 17.414062 L 18.382812 17.535156 L 18.238281 17.6875 L 18.160156 17.777344 L 17.730469 18.203125 L 17.644531 18.28125 L 17.5 18.414062 L 17.347656 18.546875 L 17.203125 18.667969 L 17.09375 18.753906 L 16.875 18.921875 L 16.710938 19.039062 L 16.324219 19.292969 L 16.09375 19.4375 L 15.851562 19.578125 L 15.621094 19.710938 L 15.167969 19.933594 L 14.859375 20.074219 L 14.441406 20.238281 L 13.96875 20.40625 L 13.398438 20.558594 L 12.902344 20.667969 L 12.453125 20.746094 L 12.023438 20.800781 L 11.460938 20.84375 L 11.1875 20.855469 L 10.800781 20.855469 L 10.4375 20.84375 L 9.953125 20.800781 L 9.472656 20.734375 L 9.007812 20.65625 L 8.546875 20.546875 L 8.0625 20.414062 L 7.621094 20.261719 L 7.226562 20.109375 L 6.753906 19.898438 L 6.367188 19.710938 L 6.105469 19.558594 L 5.917969 19.449219 L 5.652344 19.28125 L 5.289062 19.039062 L 5.082031 18.886719 L 4.851562 18.710938 L 4.6875 18.566406 L 4.53125 18.4375 L 4.445312 18.359375 L 4.15625 18.09375 L 3.773438 17.710938 L 3.695312 17.621094 L 3.585938 17.5 L 3.488281 17.378906 L 3.367188 17.238281 L 3.265625 17.117188 L 3.15625 16.972656 L 2.980469 16.742188 L 2.816406 16.5 L 2.683594 16.300781 L 2.519531 16.027344 L 2.363281 15.761719 L 2.179688 15.410156 L 1.992188 15.015625 L 1.835938 14.652344 L 1.714844 14.332031 L 1.585938 13.9375 L 1.472656 13.550781 L 1.363281 13.113281 L 1.285156 12.714844 L 1.230469 12.351562 L 1.1875 12 L 1.15625 11.570312 L 1.144531 11.363281 L 1.144531 10.660156 L 1.164062 10.253906 L 1.199219 9.890625 L 1.277344 9.351562 L 1.363281 8.886719 L 1.496094 8.359375 L 1.628906 7.921875 L 1.769531 7.511719 L 1.859375 7.292969 L 1.96875 7.027344 L 2.121094 6.699219 L 2.265625 6.414062 L 2.386719 6.191406 L 2.539062 5.929688 L 2.683594 5.699219 L 2.792969 5.53125 L 2.914062 5.355469 L 3.046875 5.171875 L 3.144531 5.039062 L 3.367188 4.753906 L 3.488281 4.609375 L 3.617188 4.453125 L 3.925781 4.125 L 4.191406 3.859375 L 4.277344 3.785156 L 4.367188 3.695312 L 4.453125 3.617188 L 4.597656 3.496094 L 4.753906 3.367188 L 4.894531 3.257812 L 5.09375 3.101562 L 5.28125 2.96875 L 5.476562 2.828125 L 5.71875 2.671875 L 5.929688 2.539062 L 6.117188 2.429688 L 6.324219 2.308594 L 6.601562 2.167969 L 6.777344 2.078125 L 7.214844 1.890625 L 7.613281 1.738281 L 7.996094 1.59375 L 8.460938 1.464844 L 8.933594 1.351562 L 9.40625 1.265625 L 9.878906 1.199219 L 10.371094 1.15625 Z M 10.648438 1.144531 "/>
<path style=" stroke:none;fill-rule:nonzero;fill:rgb(98.039216%,49.803922%,1.176471%);fill-opacity:1;" d="M 11.460938 7.710938 L 11.582031 7.734375 L 11.890625 7.753906 L 12.1875 7.765625 L 12.285156 7.808594 L 12.34375 7.855469 L 12.40625 7.953125 L 12.429688 8.019531 L 12.660156 8.050781 L 12.816406 8.0625 L 13.121094 8.160156 L 13.355469 8.238281 L 13.539062 8.328125 L 13.617188 8.394531 L 13.847656 8.503906 L 13.992188 8.625 L 14.070312 8.699219 L 14.15625 8.777344 L 14.277344 8.878906 L 14.355469 8.964844 L 14.496094 9.109375 L 14.609375 9.261719 L 14.695312 9.4375 L 14.785156 9.648438 L 14.914062 10.066406 L 14.992188 10.253906 L 15.082031 10.382812 L 15.214844 10.550781 L 15.355469 10.660156 L 15.542969 10.789062 L 15.707031 10.933594 L 15.816406 11.054688 L 15.929688 11.21875 L 16.015625 11.40625 L 16.09375 11.671875 L 16.136719 11.890625 L 16.191406 12.230469 L 16.214844 12.40625 L 16.214844 12.640625 L 16.226562 12.738281 L 16.226562 13.023438 L 16.050781 13.375 L 16.027344 13.386719 L 15.839844 13.386719 L 15.730469 13.421875 L 15.707031 13.464844 L 15.71875 13.671875 L 15.6875 13.882812 L 15.640625 13.992188 L 15.488281 14.15625 L 15.367188 14.265625 L 15.222656 14.355469 L 15.027344 14.441406 L 14.980469 14.453125 L 14.574219 14.453125 L 14.53125 14.433594 L 14.488281 14.441406 L 14.300781 14.628906 L 14.210938 14.707031 L 14.101562 14.804688 L 13.949219 14.925781 L 13.828125 15.015625 L 13.660156 15.125 L 13.484375 15.234375 L 13.253906 15.367188 L 12.992188 15.5 L 12.726562 15.609375 L 12.417969 15.707031 L 12.121094 15.785156 L 11.835938 15.839844 L 11.59375 15.871094 L 11.242188 15.894531 L 11.03125 15.894531 L 10.648438 15.871094 L 10.371094 15.839844 L 9.976562 15.761719 L 9.703125 15.6875 L 9.316406 15.554688 L 9.117188 15.464844 L 8.941406 15.378906 L 8.734375 15.269531 L 8.46875 15.101562 L 8.292969 14.972656 L 8.171875 14.882812 L 8.050781 14.773438 L 7.964844 14.695312 L 7.820312 14.5625 L 7.777344 14.542969 L 7.566406 14.542969 L 7.304688 14.496094 L 7.171875 14.453125 L 7.050781 14.386719 L 6.996094 14.34375 L 6.898438 14.222656 L 6.785156 14.070312 L 6.710938 13.914062 L 6.644531 13.652344 L 6.609375 13.484375 L 6.335938 13.484375 L 6.148438 13.464844 L 6.015625 13.410156 L 5.941406 13.34375 L 5.839844 13.210938 L 5.820312 13.132812 L 5.808594 13.011719 L 5.785156 12.5625 L 5.785156 12.144531 L 5.796875 11.988281 L 5.808594 11.683594 L 5.808594 11.242188 L 5.820312 11.199219 L 5.820312 11.109375 L 5.808594 11.042969 L 5.808594 10.679688 L 5.820312 10.40625 L 5.796875 10.164062 L 5.796875 9.097656 L 5.828125 8.800781 L 5.863281 8.679688 L 5.863281 8.558594 L 5.949219 8.207031 L 6.015625 8.074219 L 6.105469 7.996094 L 6.28125 7.910156 L 6.433594 7.84375 L 6.5 7.84375 L 6.511719 7.855469 L 6.621094 7.855469 L 6.765625 7.832031 L 7.214844 7.800781 L 7.4375 7.789062 L 7.996094 7.789062 L 9.109375 7.777344 L 9.480469 7.789062 L 9.667969 7.777344 L 10.121094 7.765625 L 10.207031 7.753906 L 10.550781 7.753906 L 10.660156 7.742188 L 10.976562 7.734375 L 11.132812 7.722656 L 11.441406 7.722656 Z M 11.460938 7.710938 "/>
<path style=" stroke:none;fill-rule:nonzero;fill:rgb(98.039216%,49.803922%,1.176471%);fill-opacity:1;" d="M 11 7.886719 L 11.5625 7.886719 L 11.570312 7.898438 L 11.804688 7.921875 L 12.109375 7.921875 L 12.199219 7.976562 L 12.230469 8.019531 L 12.242188 8.0625 L 12.253906 8.261719 L 12.253906 8.382812 L 12.242188 8.414062 L 12.242188 8.636719 L 12.277344 9.042969 L 12.296875 9.515625 L 12.308594 9.625 L 12.308594 9.910156 L 12.296875 9.988281 L 12.285156 10.21875 L 12.285156 12.046875 L 12.265625 12.210938 L 12.242188 12.617188 L 12.242188 13.003906 L 12.230469 13.113281 L 12.253906 13.289062 L 12.242188 13.300781 L 11.582031 13.308594 L 10.824219 13.308594 L 10.40625 13.320312 L 10.085938 13.355469 L 9.59375 13.375 L 8.886719 13.375 L 8.734375 13.355469 L 8.46875 13.332031 L 8.425781 13.289062 L 8.339844 13.046875 L 8.25 12.882812 L 8.140625 12.769531 L 7.976562 12.683594 L 7.777344 12.617188 L 7.613281 12.59375 L 7.511719 12.59375 L 7.28125 12.640625 L 7.0625 12.726562 L 6.90625 12.835938 L 6.765625 12.96875 L 6.6875 13.058594 L 6.609375 13.210938 L 6.589844 13.308594 L 6.578125 13.320312 L 6.203125 13.289062 L 6.027344 13.289062 L 5.996094 13.234375 L 5.929688 12.871094 L 5.917969 12.714844 L 5.917969 12.386719 L 5.941406 11.925781 L 5.949219 11.835938 L 5.949219 10.714844 L 5.941406 10.273438 L 5.917969 9.953125 L 5.894531 9.503906 L 5.894531 9.03125 L 5.929688 8.832031 L 5.984375 8.492188 L 6.027344 8.304688 L 6.070312 8.207031 L 6.160156 8.128906 L 6.269531 8.050781 L 6.402344 8.007812 L 6.546875 7.984375 L 6.984375 7.964844 L 7.261719 7.941406 L 7.382812 7.929688 L 7.414062 7.941406 L 7.777344 7.941406 L 7.898438 7.929688 L 8.050781 7.929688 L 8.160156 7.941406 L 8.28125 7.929688 L 8.480469 7.929688 L 8.515625 7.941406 L 8.820312 7.921875 L 8.878906 7.941406 L 8.976562 7.941406 L 9.03125 7.921875 L 9.085938 7.921875 L 9.140625 7.953125 L 9.777344 7.929688 L 10.1875 7.929688 L 10.21875 7.921875 L 10.671875 7.910156 L 10.988281 7.898438 Z M 11 7.886719 "/>
<path style=" stroke:none;fill-rule:nonzero;fill:rgb(0.392157%,0.392157%,0.392157%);fill-opacity:1;" d="M 11 7.886719 L 11.5625 7.886719 L 11.570312 7.898438 L 11.804688 7.921875 L 12.109375 7.921875 L 12.199219 7.976562 L 12.230469 8.019531 L 12.242188 8.0625 L 12.253906 8.261719 L 12.253906 8.382812 L 12.242188 8.414062 L 12.242188 8.636719 L 12.277344 9.042969 L 12.296875 9.515625 L 12.308594 9.625 L 12.308594 9.910156 L 12.296875 9.988281 L 12.285156 10.21875 L 12.285156 12.046875 L 12.265625 12.210938 L 12.242188 12.617188 L 12.242188 13.003906 L 12.230469 13.113281 L 12.253906 13.289062 L 12.242188 13.300781 L 11.582031 13.308594 L 10.824219 13.308594 L 10.40625 13.320312 L 10.085938 13.355469 L 9.59375 13.375 L 8.886719 13.375 L 8.734375 13.355469 L 8.46875 13.332031 L 8.425781 13.289062 L 8.339844 13.046875 L 8.25 12.882812 L 8.140625 12.769531 L 7.976562 12.683594 L 7.777344 12.617188 L 7.613281 12.59375 L 7.511719 12.59375 L 7.28125 12.640625 L 7.0625 12.726562 L 6.90625 12.835938 L 6.765625 12.96875 L 6.6875 13.058594 L 6.609375 13.210938 L 6.589844 13.308594 L 6.578125 13.320312 L 6.203125 13.289062 L 6.027344 13.289062 L 5.996094 13.234375 L 5.929688 12.871094 L 5.917969 12.714844 L 5.917969 12.386719 L 5.941406 11.925781 L 5.949219 11.835938 L 5.949219 10.714844 L 5.941406 10.273438 L 5.917969 9.953125 L 5.894531 9.503906 L 5.894531 9.03125 L 5.929688 8.832031 L 5.984375 8.492188 L 6.027344 8.304688 L 6.070312 8.207031 L 6.160156 8.128906 L 6.269531 8.050781 L 6.402344 8.007812 L 6.546875 7.984375 L 6.984375 7.964844 L 7.261719 7.941406 L 7.382812 7.929688 L 7.414062 7.941406 L 7.777344 7.941406 L 7.898438 7.929688 L 8.050781 7.929688 L 8.160156 7.941406 L 8.28125 7.929688 L 8.480469 7.929688 L 8.515625 7.941406 L 8.820312 7.921875 L 8.878906 7.941406 L 8.976562 7.941406 L 9.03125 7.921875 L 9.085938 7.921875 L 9.140625 7.953125 L 9.777344 7.929688 L 10.1875 7.929688 L 10.21875 7.921875 L 10.671875 7.910156 L 10.988281 7.898438 Z M 8.898438 8.328125 L 8.832031 8.347656 L 8.4375 8.339844 L 8.261719 8.359375 L 8.105469 8.359375 L 7.996094 8.382812 L 7.734375 8.394531 L 7.667969 8.402344 L 6.996094 8.402344 L 6.808594 8.414062 L 6.578125 8.425781 L 6.433594 8.460938 L 6.390625 8.515625 L 6.335938 8.625 L 6.335938 8.644531 L 6.3125 8.644531 L 6.238281 8.765625 L 6.171875 8.886719 L 6.191406 8.941406 L 6.246094 8.996094 L 6.335938 9.007812 L 6.390625 9.007812 L 6.433594 9.328125 L 6.433594 10 L 6.445312 10.195312 L 6.457031 10.261719 L 6.46875 10.570312 L 6.46875 10.757812 L 6.445312 10.847656 L 6.445312 10.96875 L 6.457031 11.011719 L 6.457031 11.089844 L 6.445312 11.175781 L 6.445312 11.296875 L 6.433594 11.351562 L 6.480469 11.460938 L 6.578125 11.570312 L 6.753906 11.617188 L 6.863281 11.628906 L 7.117188 11.636719 L 7.238281 11.648438 L 7.898438 11.648438 L 8.085938 11.636719 L 8.160156 11.628906 L 8.21875 11.648438 L 8.46875 11.648438 L 8.644531 11.671875 L 8.757812 11.671875 L 8.789062 11.660156 L 8.976562 11.660156 L 9.128906 11.671875 L 9.164062 11.636719 L 9.21875 11.636719 L 9.230469 11.648438 L 9.359375 11.660156 L 9.734375 11.660156 L 9.757812 11.636719 L 9.824219 11.636719 L 9.835938 11.648438 L 10.042969 11.660156 L 10.195312 11.660156 L 10.230469 11.636719 L 10.308594 11.648438 L 10.746094 11.648438 L 10.789062 11.628906 L 10.867188 11.628906 L 10.921875 11.648438 L 10.976562 11.636719 L 11.265625 11.628906 L 11.339844 11.617188 L 11.617188 11.605469 L 11.703125 11.5625 L 11.738281 11.507812 L 11.769531 11.339844 L 11.769531 10.945312 L 11.757812 10.878906 L 11.769531 10.800781 L 11.792969 10.140625 L 11.792969 9.769531 L 11.78125 9.714844 L 11.769531 9.449219 L 11.746094 9.316406 L 11.746094 9.195312 L 11.757812 9.117188 L 11.757812 8.964844 L 11.746094 8.941406 L 11.890625 8.933594 L 11.96875 8.898438 L 12 8.855469 L 12 8.789062 L 11.945312 8.710938 L 11.859375 8.492188 L 11.8125 8.425781 L 11.78125 8.414062 L 11 8.414062 L 10.78125 8.394531 L 10.746094 8.382812 L 10.484375 8.382812 L 10.449219 8.371094 L 10.121094 8.359375 L 9.988281 8.339844 L 9.714844 8.339844 L 9.703125 8.347656 L 9.460938 8.347656 L 9.40625 8.339844 L 9.207031 8.339844 L 9.183594 8.328125 L 9.109375 8.328125 L 9.097656 8.339844 L 9.007812 8.339844 L 8.976562 8.328125 Z M 8.898438 8.328125 "/>
<path style=" stroke:none;fill-rule:nonzero;fill:rgb(98.039216%,49.803922%,1.176471%);fill-opacity:1;" d="M 17.433594 13.1875 L 17.644531 13.1875 L 17.820312 13.222656 L 18.007812 13.300781 L 18.128906 13.386719 L 18.214844 13.476562 L 18.324219 13.640625 L 18.390625 13.804688 L 18.4375 13.980469 L 18.457031 14.144531 L 18.457031 14.3125 L 18.414062 14.585938 L 18.324219 14.871094 L 18.25 15.058594 L 18.140625 15.257812 L 17.984375 15.476562 L 17.886719 15.585938 L 17.808594 15.675781 L 17.699219 15.785156 L 17.554688 15.894531 L 17.359375 16.015625 L 17.128906 16.125 L 16.941406 16.179688 L 16.785156 16.203125 L 16.652344 16.203125 L 16.46875 16.171875 L 16.410156 16.179688 L 16.015625 16.578125 L 15.929688 16.652344 L 15.808594 16.765625 L 15.652344 16.886719 L 15.453125 17.039062 L 15.257812 17.183594 L 14.992188 17.359375 L 14.773438 17.488281 L 14.496094 17.644531 L 14.320312 17.730469 L 14.070312 17.851562 L 13.671875 18.019531 L 13.410156 18.117188 L 13.023438 18.226562 L 12.5625 18.335938 L 12.144531 18.414062 L 11.804688 18.457031 L 11.417969 18.480469 L 10.757812 18.480469 L 10.351562 18.457031 L 10.074219 18.425781 L 9.667969 18.359375 L 9.152344 18.238281 L 8.636719 18.074219 L 8.28125 17.941406 L 7.964844 17.796875 L 7.679688 17.65625 L 7.414062 17.5 L 7.171875 17.359375 L 6.964844 17.214844 L 6.785156 17.082031 L 6.664062 16.996094 L 6.523438 16.886719 L 6.367188 16.765625 L 6.292969 16.6875 L 6.203125 16.609375 L 6.039062 16.457031 L 5.765625 16.179688 L 5.6875 16.09375 L 5.566406 15.960938 L 5.46875 15.839844 L 5.324219 15.652344 L 5.191406 15.476562 L 5.039062 15.257812 L 4.917969 15.058594 L 4.773438 14.816406 L 4.664062 14.617188 L 4.511719 14.3125 L 4.378906 14.003906 L 4.269531 13.71875 L 4.214844 13.550781 L 4.214844 13.476562 L 4.246094 13.398438 L 4.300781 13.34375 L 4.367188 13.300781 L 4.476562 13.300781 L 4.566406 13.355469 L 4.621094 13.421875 L 4.695312 13.597656 L 4.808594 13.882812 L 4.929688 14.15625 L 5.015625 14.332031 L 5.136719 14.5625 L 5.3125 14.859375 L 5.433594 15.046875 L 5.578125 15.257812 L 5.71875 15.445312 L 5.828125 15.574219 L 5.917969 15.6875 L 6.039062 15.816406 L 6.117188 15.90625 L 6.445312 16.234375 L 6.535156 16.3125 L 6.578125 16.347656 L 6.578125 16.367188 L 6.621094 16.390625 L 6.730469 16.488281 L 6.84375 16.578125 L 6.984375 16.6875 L 7.171875 16.820312 L 7.492188 17.027344 L 7.65625 17.128906 L 7.855469 17.238281 L 8.105469 17.367188 L 8.46875 17.535156 L 8.777344 17.65625 L 9.304688 17.820312 L 9.558594 17.886719 L 9.824219 17.941406 L 10.207031 17.996094 L 10.503906 18.027344 L 10.945312 18.050781 L 11.328125 18.050781 L 11.703125 18.027344 L 12.046875 17.984375 L 12.527344 17.898438 L 12.9375 17.796875 L 13.199219 17.722656 L 13.585938 17.578125 L 13.894531 17.457031 L 14.332031 17.238281 L 14.585938 17.09375 L 14.816406 16.949219 L 14.980469 16.839844 L 15.136719 16.730469 L 15.300781 16.597656 L 15.445312 16.488281 L 15.566406 16.390625 L 15.839844 16.136719 L 16.050781 15.929688 L 16.039062 15.882812 L 15.949219 15.742188 L 15.882812 15.574219 L 15.839844 15.378906 L 15.828125 15.289062 L 15.828125 14.992188 L 15.863281 14.804688 L 15.929688 14.574219 L 15.984375 14.421875 L 16.09375 14.210938 L 16.214844 14.015625 L 16.347656 13.839844 L 16.5 13.671875 L 16.6875 13.519531 L 16.863281 13.398438 L 17.070312 13.289062 L 17.246094 13.222656 Z M 17.433594 13.1875 "/>
<path style=" stroke:none;fill-rule:nonzero;fill:rgb(0.392157%,0.392157%,0.392157%);fill-opacity:1;" d="M 12.441406 8.171875 L 12.683594 8.226562 L 13.058594 8.328125 L 13.375 8.46875 L 13.628906 8.601562 L 13.839844 8.746094 L 13.992188 8.878906 L 14.113281 8.976562 L 14.289062 9.164062 L 14.378906 9.261719 L 14.453125 9.382812 L 14.519531 9.503906 L 14.585938 9.648438 L 14.628906 9.789062 L 14.683594 10 L 14.816406 10.328125 L 14.914062 10.484375 L 15.027344 10.625 L 15.101562 10.703125 L 15.300781 10.847656 L 15.367188 10.902344 L 15.378906 10.921875 L 15.390625 11.144531 L 15.433594 11.339844 L 15.519531 11.539062 L 15.597656 11.628906 L 15.761719 11.714844 L 15.871094 11.757812 L 15.90625 11.835938 L 15.949219 12.078125 L 15.984375 12.285156 L 16.003906 12.464844 L 16.003906 12.683594 L 16.027344 12.769531 L 16.027344 12.882812 L 15.992188 13.058594 L 15.929688 13.222656 L 15.90625 13.242188 L 15.730469 13.242188 L 15.675781 13.210938 L 15.609375 13.078125 L 15.53125 12.980469 L 15.410156 12.871094 L 15.277344 12.769531 L 15.125 12.703125 L 14.972656 12.660156 L 14.882812 12.640625 L 14.707031 12.585938 L 14.664062 12.574219 L 14.476562 12.574219 L 14.300781 12.660156 L 14.210938 12.714844 L 14.136719 12.804688 L 14.070312 12.902344 L 13.960938 13.132812 L 13.914062 13.253906 L 13.894531 13.265625 L 13.738281 13.277344 L 13.683594 13.289062 L 12.9375 13.289062 L 12.882812 13.277344 L 12.550781 13.265625 L 12.519531 13.1875 L 12.484375 13.078125 L 12.484375 12.902344 L 12.496094 12.695312 L 12.496094 12.496094 L 12.507812 12.253906 L 12.519531 12.175781 L 12.519531 11.703125 L 12.507812 10.703125 L 12.507812 10.394531 L 12.519531 10.339844 L 12.519531 10.140625 L 12.527344 9.933594 L 12.519531 9.21875 L 12.496094 8.933594 L 12.464844 8.65625 L 12.453125 8.480469 L 12.441406 8.414062 Z M 12.441406 8.171875 "/>
<path style=" stroke:none;fill-rule:nonzero;fill:rgb(98.039216%,49.803922%,1.176471%);fill-opacity:1;" d="M 10.570312 3.519531 L 11.628906 3.519531 L 11.914062 3.542969 L 12.308594 3.597656 L 12.605469 3.652344 L 12.914062 3.730469 L 13.234375 3.816406 L 13.597656 3.9375 L 13.914062 4.070312 L 14.144531 4.167969 L 14.378906 4.277344 L 14.640625 4.433594 L 14.839844 4.542969 L 15.101562 4.707031 L 15.269531 4.816406 L 15.476562 4.972656 L 15.664062 5.125 L 15.949219 5.367188 L 16.125 5.53125 L 16.46875 5.875 L 16.542969 5.960938 L 16.664062 6.105469 L 16.796875 6.269531 L 16.90625 6.414062 L 17.050781 6.609375 L 17.148438 6.753906 L 17.28125 6.964844 L 17.414062 7.195312 L 17.523438 7.390625 L 17.65625 7.65625 L 17.820312 8.03125 L 17.953125 8.402344 L 18.085938 8.800781 L 18.105469 8.878906 L 18.105469 8.964844 L 18.074219 9.03125 L 18.027344 9.085938 L 17.917969 9.140625 L 17.820312 9.128906 L 17.753906 9.085938 L 17.699219 9.019531 L 17.644531 8.878906 L 17.511719 8.480469 L 17.390625 8.160156 L 17.28125 7.910156 L 17.191406 7.734375 L 17.027344 7.414062 L 16.863281 7.140625 L 16.742188 6.953125 L 16.609375 6.765625 L 16.511719 6.632812 L 16.402344 6.488281 L 16.28125 6.347656 L 16.179688 6.226562 L 16.050781 6.082031 L 15.742188 5.773438 L 15.652344 5.699219 L 15.511719 5.566406 L 15.203125 5.324219 L 14.992188 5.171875 L 14.730469 4.992188 L 14.5625 4.894531 L 14.265625 4.730469 L 13.992188 4.585938 L 13.660156 4.445312 L 13.320312 4.3125 L 13.046875 4.222656 L 12.5625 4.101562 L 12.222656 4.035156 L 11.925781 3.992188 L 11.617188 3.960938 L 11.449219 3.949219 L 10.726562 3.949219 L 10.394531 3.972656 L 10.03125 4.027344 L 9.734375 4.082031 L 9.425781 4.148438 L 9.140625 4.222656 L 8.777344 4.34375 L 8.449219 4.476562 L 8.171875 4.597656 L 7.964844 4.695312 L 7.722656 4.828125 L 7.480469 4.972656 L 7.25 5.125 L 7.0625 5.257812 L 6.863281 5.410156 L 6.675781 5.566406 L 6.523438 5.699219 L 6.390625 5.820312 L 6.117188 6.09375 L 6.117188 6.183594 L 6.214844 6.808594 L 6.269531 7.128906 L 6.269531 7.25 L 6.226562 7.335938 L 6.136719 7.46875 L 6.007812 7.679688 L 5.851562 7.941406 L 5.6875 8.273438 L 5.542969 8.613281 L 5.488281 8.722656 L 5.410156 8.800781 L 5.378906 8.8125 L 5.257812 8.8125 L 5.171875 8.765625 L 5.113281 8.699219 L 5.105469 8.679688 L 5.105469 8.546875 L 5.160156 8.382812 L 5.257812 8.152344 L 5.410156 7.832031 L 5.578125 7.523438 L 5.710938 7.316406 L 5.71875 7.269531 L 5.433594 7.140625 L 5.355469 7.09375 L 5.335938 7.09375 L 5.234375 7.269531 L 5.136719 7.4375 L 5.003906 7.6875 L 4.917969 7.863281 L 4.796875 8.140625 L 4.707031 8.359375 L 4.621094 8.570312 L 4.554688 8.625 L 4.453125 8.667969 L 4.355469 8.65625 L 4.269531 8.589844 L 4.234375 8.523438 L 4.222656 8.414062 L 4.300781 8.183594 L 4.410156 7.910156 L 4.554688 7.589844 L 4.71875 7.269531 L 4.871094 7.007812 L 4.9375 6.898438 L 4.9375 6.875 L 4.707031 6.777344 L 4.597656 6.722656 L 4.554688 6.722656 L 4.398438 6.984375 L 4.234375 7.292969 L 4.148438 7.46875 L 4.003906 7.777344 L 3.894531 8.0625 L 3.816406 8.21875 L 3.738281 8.28125 L 3.683594 8.304688 L 3.609375 8.304688 L 3.519531 8.273438 L 3.453125 8.183594 L 3.433594 8.128906 L 3.433594 8.039062 L 3.507812 7.820312 L 3.640625 7.503906 L 3.785156 7.195312 L 3.90625 6.953125 L 4.015625 6.753906 L 4.15625 6.511719 L 4.277344 6.324219 L 4.355469 6.238281 L 4.519531 6.171875 L 5.179688 5.996094 L 5.609375 5.886719 L 5.742188 5.839844 L 5.851562 5.742188 L 5.972656 5.609375 L 6.128906 5.457031 L 6.148438 5.457031 L 6.148438 5.433594 L 6.238281 5.355469 L 6.347656 5.257812 L 6.46875 5.160156 L 6.609375 5.039062 L 6.820312 4.882812 L 6.996094 4.761719 L 7.226562 4.609375 L 7.457031 4.464844 L 7.699219 4.335938 L 7.863281 4.246094 L 8.085938 4.148438 L 8.503906 3.972656 L 8.867188 3.839844 L 9.316406 3.71875 L 9.746094 3.617188 L 10.085938 3.5625 L 10.382812 3.53125 Z M 10.570312 3.519531 "/>
<path style=" stroke:none;fill-rule:nonzero;fill:rgb(0.392157%,0.392157%,0.392157%);fill-opacity:1;" d="M 12.472656 13.398438 L 12.550781 13.410156 L 12.902344 13.410156 L 12.945312 13.429688 L 13.320312 13.429688 L 13.683594 13.410156 L 13.914062 13.398438 L 13.949219 13.683594 L 14.023438 13.980469 L 14.101562 14.125 L 14.136719 14.179688 L 13.960938 14.34375 L 13.828125 14.464844 L 13.707031 14.5625 L 13.53125 14.695312 L 13.265625 14.859375 L 13.066406 14.972656 L 12.882812 15.070312 L 12.585938 15.191406 L 12.175781 15.324219 L 11.925781 15.378906 L 11.59375 15.433594 L 11.386719 15.453125 L 11.230469 15.464844 L 10.921875 15.464844 L 10.625 15.445312 L 10.339844 15.398438 L 9.945312 15.3125 L 9.546875 15.179688 L 9.183594 15.015625 L 8.976562 14.90625 L 8.777344 14.785156 L 8.644531 14.695312 L 8.46875 14.5625 L 8.347656 14.453125 L 8.25 14.378906 L 8.238281 14.320312 L 8.304688 14.265625 L 8.402344 14.078125 L 8.46875 13.882812 L 8.515625 13.660156 L 8.535156 13.484375 L 8.558594 13.476562 L 8.867188 13.519531 L 9.164062 13.539062 L 9.328125 13.539062 L 9.648438 13.519531 L 9.679688 13.507812 L 9.777344 13.507812 L 9.84375 13.519531 L 9.933594 13.507812 L 10.074219 13.507812 L 10.328125 13.484375 L 10.671875 13.484375 L 10.769531 13.476562 L 11.078125 13.476562 L 11.210938 13.464844 L 11.296875 13.484375 L 11.394531 13.484375 L 11.570312 13.476562 L 11.683594 13.476562 L 11.746094 13.464844 L 11.925781 13.464844 L 12.011719 13.476562 L 12.035156 13.464844 L 12.332031 13.453125 L 12.429688 13.441406 L 12.441406 13.410156 Z M 12.472656 13.398438 "/>
<path style=" stroke:none;fill-rule:nonzero;fill:rgb(0.392157%,0.392157%,0.392157%);fill-opacity:1;" d="M 11.253906 8.933594 L 11.429688 8.933594 L 11.671875 8.941406 L 11.671875 9.207031 L 11.648438 9.304688 L 11.648438 9.535156 L 11.671875 9.601562 L 11.671875 9.703125 L 11.660156 9.800781 L 11.671875 9.855469 L 11.671875 10.066406 L 11.660156 10.121094 L 11.636719 10.339844 L 11.636719 10.660156 L 11.628906 11.023438 L 11.617188 11.121094 L 11.605469 11.132812 L 10.945312 11.152344 L 10.78125 11.164062 L 10.558594 11.164062 L 10.558594 11.089844 L 10.605469 10.878906 L 10.691406 10.769531 L 10.714844 10.746094 L 10.726562 10.703125 L 10.636719 10.769531 L 10.558594 10.867188 L 10.472656 10.890625 L 10 10.890625 L 9.921875 10.8125 L 9.867188 10.789062 L 9.890625 10.867188 L 9.933594 10.921875 L 9.953125 11.152344 L 9.945312 11.164062 L 9.789062 11.164062 L 9.492188 11.144531 L 9.414062 10.988281 L 9.414062 10.933594 L 9.570312 10.835938 L 9.714844 10.691406 L 9.777344 10.613281 L 9.878906 10.429688 L 9.921875 10.296875 L 9.910156 10.207031 L 9.84375 10.054688 L 9.757812 9.933594 L 9.703125 9.878906 L 9.582031 9.769531 L 9.449219 9.703125 L 9.195312 9.648438 L 9.019531 9.625 L 8.921875 9.570312 L 8.789062 9.4375 L 8.777344 9.371094 L 8.8125 9.296875 L 8.800781 9.238281 L 8.710938 9.164062 L 8.644531 9.074219 L 8.625 9.03125 L 8.523438 8.996094 L 8.570312 8.988281 L 9.0625 9.007812 L 9.558594 9.019531 L 10.019531 8.988281 L 10.066406 8.976562 L 10.382812 8.964844 L 10.550781 8.976562 L 10.679688 8.953125 L 10.726562 8.941406 L 10.769531 8.953125 L 10.945312 8.953125 Z M 11.253906 8.933594 "/>
<path style=" stroke:none;fill-rule:nonzero;fill:rgb(98.039216%,49.803922%,1.176471%);fill-opacity:1;" d="M 10.8125 6.105469 L 11.320312 6.105469 L 11.660156 6.136719 L 12.054688 6.203125 L 12.332031 6.269531 L 12.726562 6.402344 L 13.046875 6.535156 L 13.222656 6.621094 L 13.441406 6.742188 L 13.585938 6.832031 L 13.78125 6.964844 L 13.96875 7.09375 L 14.089844 7.195312 L 14.199219 7.292969 L 14.289062 7.382812 L 14.378906 7.457031 L 14.453125 7.535156 L 14.53125 7.621094 L 14.675781 7.777344 L 14.785156 7.921875 L 14.9375 8.128906 L 15.027344 8.261719 L 15.113281 8.402344 L 15.136719 8.460938 L 15.136719 8.546875 L 15.09375 8.636719 L 15.003906 8.699219 L 14.894531 8.722656 L 14.804688 8.691406 L 14.730469 8.613281 L 14.597656 8.414062 L 14.464844 8.226562 L 14.355469 8.085938 L 14.210938 7.921875 L 14.089844 7.789062 L 13.992188 7.6875 L 13.902344 7.613281 L 13.75 7.480469 L 13.550781 7.324219 L 13.386719 7.214844 L 13.222656 7.117188 L 12.980469 6.984375 L 12.683594 6.851562 L 12.40625 6.753906 L 12.144531 6.675781 L 11.867188 6.609375 L 11.539062 6.554688 L 11.429688 6.546875 L 10.867188 6.546875 L 10.527344 6.578125 L 10.253906 6.621094 L 9.855469 6.722656 L 9.492188 6.84375 L 9.230469 6.964844 L 9.019531 7.074219 L 8.757812 7.238281 L 8.558594 7.382812 L 8.414062 7.492188 L 8.28125 7.613281 L 8.128906 7.734375 L 8.039062 7.765625 L 7.941406 7.753906 L 7.875 7.710938 L 7.832031 7.65625 L 7.808594 7.589844 L 7.808594 7.492188 L 7.863281 7.402344 L 7.921875 7.335938 L 8.007812 7.261719 L 8.105469 7.171875 L 8.261719 7.050781 L 8.460938 6.90625 L 8.644531 6.785156 L 8.8125 6.6875 L 9.207031 6.488281 L 9.480469 6.378906 L 9.746094 6.292969 L 10.054688 6.214844 L 10.394531 6.148438 L 10.660156 6.117188 Z M 10.8125 6.105469 "/>
<path style=" stroke:none;fill-rule:nonzero;fill:rgb(0.392157%,0.392157%,0.392157%);fill-opacity:1;" d="M 12.78125 9.0625 L 13.355469 9.0625 L 13.507812 9.085938 L 13.695312 9.097656 L 13.859375 9.164062 L 13.949219 9.230469 L 14.070312 9.40625 L 14.179688 9.59375 L 14.277344 9.769531 L 14.441406 10.074219 L 14.53125 10.261719 L 14.652344 10.472656 L 14.730469 10.582031 L 14.773438 10.679688 L 14.773438 10.714844 L 14.738281 10.726562 L 14.441406 10.726562 L 14.222656 10.714844 L 14.078125 10.734375 L 13.925781 10.746094 L 13.375 10.757812 L 12.992188 10.769531 L 12.890625 10.746094 L 12.859375 10.726562 L 12.847656 10.613281 L 12.847656 10.484375 L 12.859375 10.429688 L 12.859375 10.195312 L 12.847656 9.878906 L 12.824219 9.703125 L 12.804688 9.328125 L 12.769531 9.074219 Z M 12.78125 9.0625 "/>
<path style=" stroke:none;fill-rule:nonzero;fill:rgb(0.392157%,0.392157%,0.392157%);fill-opacity:1;" d="M 6.832031 8.964844 L 7.140625 8.964844 L 7.304688 8.988281 L 7.335938 8.996094 L 7.457031 8.996094 L 7.511719 8.988281 L 7.566406 9.007812 L 7.6875 9.007812 L 7.820312 8.996094 L 7.898438 8.988281 L 7.921875 8.996094 L 8.128906 8.996094 L 8.328125 8.988281 L 8.503906 8.988281 L 8.46875 9.019531 L 8.359375 9.085938 L 8.273438 9.175781 L 8.226562 9.273438 L 8.238281 9.359375 L 8.292969 9.4375 L 8.382812 9.515625 L 8.449219 9.570312 L 8.503906 9.636719 L 8.492188 9.679688 L 8.371094 9.757812 L 8.0625 9.867188 L 7.886719 9.953125 L 7.699219 10.085938 L 7.558594 10.21875 L 7.4375 10.363281 L 7.347656 10.503906 L 7.324219 10.582031 L 7.324219 10.679688 L 7.371094 10.824219 L 7.46875 11.03125 L 7.511719 11.066406 L 7.511719 11.089844 L 6.808594 11.132812 L 6.722656 11.132812 L 6.699219 11.03125 L 6.6875 10.492188 L 6.6875 10.296875 L 6.664062 10.207031 L 6.664062 9.824219 L 6.644531 9.558594 L 6.644531 9.183594 L 6.664062 9.019531 L 6.675781 8.988281 Z M 6.832031 8.964844 "/>
<path style=" stroke:none;fill-rule:nonzero;fill:rgb(98.431373%,88.235295%,73.333335%);fill-opacity:1;" d="M 11.164062 4.289062 L 11.1875 4.289062 L 11.164062 4.34375 L 11.132812 4.355469 L 11.109375 4.398438 L 11.011719 4.519531 L 10.746094 4.828125 L 10.648438 4.949219 L 10.660156 4.992188 L 10.800781 5.171875 L 10.921875 5.3125 L 11.011719 5.421875 L 11.164062 5.609375 L 11.285156 5.753906 L 11.320312 5.796875 L 11.320312 5.820312 L 11.097656 5.839844 L 11 5.730469 L 10.878906 5.578125 L 10.757812 5.433594 L 10.660156 5.3125 L 10.570312 5.203125 L 10.539062 5.160156 L 10.539062 5.136719 L 10.515625 5.136719 L 10.515625 5.113281 L 10.460938 5.148438 L 10.382812 5.234375 L 10.285156 5.367188 L 10.285156 5.476562 L 10.316406 5.894531 L 10.1875 5.917969 L 10.140625 5.929688 L 10.097656 5.90625 L 9.976562 5.949219 L 9.921875 5.941406 L 9.835938 5.828125 L 9.691406 5.652344 L 9.648438 5.597656 L 9.582031 5.609375 L 9.183594 5.753906 L 9.109375 5.773438 L 9.097656 6.257812 L 9.042969 6.292969 L 8.910156 6.367188 L 8.855469 6.390625 L 8.515625 6.269531 L 8.03125 6.09375 L 7.976562 6.070312 L 7.941406 6.324219 L 7.929688 6.402344 L 8.007812 6.523438 L 8.152344 6.722656 L 8.226562 6.84375 L 8.160156 6.898438 L 8.097656 6.941406 L 8.050781 6.953125 L 7.921875 6.765625 L 7.777344 6.566406 L 7.621094 6.347656 L 7.480469 6.148438 L 7.335938 5.941406 L 7.203125 5.753906 L 7.183594 5.699219 L 7.304688 5.609375 L 7.359375 5.597656 L 7.457031 5.742188 L 7.722656 6.117188 L 7.765625 6.183594 L 7.789062 6.191406 L 7.808594 6.015625 L 7.921875 5.355469 L 7.953125 5.171875 L 8.007812 5.113281 L 8.152344 5.015625 L 8.171875 5.015625 L 8.152344 5.160156 L 8.039062 5.820312 L 8.039062 5.875 L 8.359375 5.996094 L 8.8125 6.160156 L 8.886719 6.191406 L 8.886719 4.707031 L 9.097656 4.632812 L 9.152344 4.640625 L 9.21875 4.730469 L 9.371094 4.917969 L 9.472656 5.039062 L 9.613281 5.214844 L 9.734375 5.355469 L 9.824219 5.46875 L 9.921875 5.589844 L 10.066406 5.765625 L 10.097656 5.808594 L 10.011719 4.6875 L 9.988281 4.398438 L 10 4.390625 L 10.1875 4.378906 L 10.195312 4.390625 L 10.253906 5.09375 L 10.261719 5.125 L 10.40625 4.960938 L 10.492188 4.851562 L 10.648438 4.664062 L 10.769531 4.519531 L 10.867188 4.398438 L 10.945312 4.3125 Z M 11.164062 4.289062 "/>
<path style=" stroke:none;fill-rule:nonzero;fill:rgb(98.431373%,88.627452%,74.509805%);fill-opacity:1;" d="M 12.835938 4.597656 L 12.890625 4.609375 L 13.023438 4.664062 L 13.011719 4.71875 L 12.882812 5.015625 L 12.738281 5.355469 L 12.914062 5.289062 L 13.363281 5.105469 L 13.660156 4.984375 L 13.738281 4.972656 L 13.914062 5.050781 L 13.9375 5.082031 L 13.804688 5.136719 L 13.496094 5.257812 L 13.167969 5.390625 L 13.144531 5.402344 L 13.199219 5.699219 L 13.300781 6.183594 L 13.320312 6.28125 L 13.355469 6.28125 L 13.550781 6.160156 L 13.816406 5.996094 L 14.277344 5.710938 L 14.542969 5.542969 L 14.597656 5.542969 L 14.683594 5.621094 L 14.773438 5.6875 L 14.738281 5.796875 L 14.53125 6.402344 L 14.378906 6.84375 L 14.265625 7.148438 L 14.246094 7.214844 L 14.199219 7.203125 L 14.078125 7.105469 L 14.070312 7.039062 L 14.191406 6.699219 L 14.199219 6.675781 L 14.199219 6.609375 L 14.078125 6.523438 L 13.894531 6.367188 L 13.792969 6.292969 L 13.726562 6.292969 L 13.539062 6.414062 L 13.375 6.511719 L 13.320312 6.5 L 13.234375 6.433594 L 13.132812 6.378906 L 13.113281 6.292969 L 12.96875 5.554688 L 12.957031 5.46875 L 12.738281 5.542969 L 12.628906 5.597656 L 12.472656 5.960938 L 12.429688 6.0625 L 12.351562 6.050781 L 12.242188 6.007812 L 12.253906 5.941406 L 12.429688 5.53125 L 12.5625 5.226562 L 12.703125 4.894531 L 12.824219 4.609375 Z M 12.835938 4.597656 "/>
<path style=" stroke:none;fill-rule:nonzero;fill:rgb(0.392157%,0.392157%,0.392157%);fill-opacity:1;" d="M 8.339844 8.523438 L 8.570312 8.523438 L 8.710938 8.535156 L 8.710938 8.558594 L 8.789062 8.546875 L 8.8125 8.535156 L 9.007812 8.535156 L 9.25 8.546875 L 9.84375 8.558594 L 10.296875 8.578125 L 10.460938 8.578125 L 10.515625 8.589844 L 10.769531 8.601562 L 10.824219 8.613281 L 11.738281 8.625 L 11.792969 8.679688 L 11.847656 8.777344 L 11.847656 8.8125 L 11.824219 8.820312 L 11.703125 8.8125 L 11.570312 8.800781 L 10.835938 8.800781 L 10.449219 8.8125 L 10.285156 8.820312 L 10.042969 8.820312 L 9.933594 8.84375 L 9.65625 8.867188 L 9.25 8.855469 L 9.195312 8.867188 L 9.109375 8.867188 L 9.097656 8.855469 L 8.789062 8.84375 L 8.589844 8.84375 L 8.050781 8.855469 L 7.558594 8.84375 L 7.027344 8.820312 L 6.511719 8.820312 L 6.5 8.789062 L 6.578125 8.636719 L 6.609375 8.578125 L 6.730469 8.578125 L 6.917969 8.570312 L 7.335938 8.570312 L 7.832031 8.558594 Z M 8.339844 8.523438 "/>
<path style=" stroke:none;fill-rule:nonzero;fill:rgb(98.039216%,49.803922%,1.176471%);fill-opacity:1;" d="M 12.78125 8.910156 L 12.945312 8.910156 L 13.1875 8.921875 L 13.441406 8.964844 L 13.652344 8.988281 L 13.859375 9.042969 L 14.015625 9.109375 L 14.136719 9.207031 L 14.234375 9.339844 L 14.398438 9.601562 L 14.496094 9.777344 L 14.5625 9.910156 L 14.652344 10.109375 L 14.75 10.285156 L 14.871094 10.539062 L 14.914062 10.660156 L 14.914062 10.746094 L 14.882812 10.800781 L 14.839844 10.835938 L 14.804688 10.847656 L 14.144531 10.867188 L 14.078125 10.878906 L 13.574219 10.890625 L 13.550781 10.902344 L 13.476562 10.902344 L 13.398438 10.890625 L 13.242188 10.921875 L 13.15625 10.921875 L 12.914062 10.890625 L 12.769531 10.867188 L 12.714844 10.8125 L 12.703125 10.789062 L 12.695312 10.660156 L 12.695312 9.867188 L 12.671875 9.503906 L 12.640625 9.273438 L 12.640625 9.152344 L 12.660156 9.007812 L 12.695312 8.953125 Z M 12.78125 9.0625 L 12.769531 9.097656 L 12.804688 9.328125 L 12.824219 9.703125 L 12.847656 9.878906 L 12.859375 10.195312 L 12.859375 10.429688 L 12.847656 10.484375 L 12.847656 10.660156 L 12.871094 10.734375 L 12.925781 10.757812 L 12.992188 10.769531 L 13.925781 10.746094 L 14.144531 10.726562 L 14.289062 10.714844 L 14.441406 10.726562 L 14.738281 10.726562 L 14.773438 10.714844 L 14.761719 10.660156 L 14.695312 10.527344 L 14.617188 10.417969 L 14.554688 10.308594 L 14.433594 10.054688 L 14.300781 9.800781 L 14.167969 9.570312 L 14.070312 9.40625 L 13.9375 9.21875 L 13.839844 9.152344 L 13.695312 9.097656 L 13.507812 9.085938 L 13.355469 9.0625 Z M 12.78125 9.0625 "/>
<path style=" stroke:none;fill-rule:nonzero;fill:rgb(98.431373%,88.235295%,73.725492%);fill-opacity:1;" d="M 14.507812 14.640625 L 14.554688 14.652344 L 14.652344 14.773438 L 14.738281 14.859375 L 14.816406 14.949219 L 14.914062 15.058594 L 15.035156 15.191406 L 15.136719 15.300781 L 15.214844 15.390625 L 15.3125 15.5 L 15.445312 15.640625 L 15.542969 15.753906 L 15.53125 15.796875 L 15.445312 15.871094 L 15.398438 15.917969 L 15.300781 15.90625 L 14.707031 15.742188 L 14.035156 15.554688 L 14.003906 15.554688 L 14.136719 15.695312 L 14.210938 15.785156 L 14.3125 15.894531 L 14.433594 16.027344 L 14.628906 16.246094 L 14.707031 16.335938 L 14.75 16.390625 L 14.796875 16.433594 L 14.773438 16.476562 L 14.71875 16.523438 L 14.683594 16.566406 L 14.628906 16.542969 L 14.476562 16.378906 L 14.398438 16.289062 L 14.15625 16.027344 L 14.058594 15.917969 L 13.980469 15.828125 L 13.882812 15.71875 L 13.761719 15.585938 L 13.640625 15.445312 L 13.660156 15.398438 L 13.773438 15.300781 L 13.804688 15.289062 L 14.496094 15.476562 L 15.179688 15.664062 L 15.101562 15.574219 L 15.003906 15.464844 L 14.90625 15.34375 L 14.828125 15.269531 L 14.75 15.179688 L 14.597656 15.015625 L 14.496094 14.894531 L 14.421875 14.816406 L 14.386719 14.773438 L 14.410156 14.730469 Z M 14.507812 14.640625 "/>
<path style=" stroke:none;fill-rule:nonzero;fill:rgb(0.392157%,0.392157%,0.392157%);fill-opacity:1;" d="M 6.710938 11.265625 L 7.800781 11.265625 L 8.449219 11.273438 L 8.570312 11.273438 L 8.65625 11.265625 L 8.976562 11.273438 L 9.304688 11.296875 L 9.527344 11.296875 L 10.253906 11.308594 L 10.679688 11.308594 L 11.164062 11.273438 L 11.441406 11.265625 L 11.628906 11.265625 L 11.636719 11.273438 L 11.671875 11.460938 L 11.628906 11.472656 L 11.570312 11.460938 L 10.878906 11.460938 L 9.714844 11.449219 L 9.636719 11.460938 L 9.558594 11.449219 L 8.636719 11.449219 L 8.578125 11.460938 L 8.492188 11.460938 L 8.449219 11.449219 L 8.039062 11.441406 L 7.84375 11.429688 L 7.820312 11.441406 L 6.863281 11.441406 L 6.710938 11.417969 L 6.699219 11.375 Z M 6.710938 11.265625 "/>
<path style=" stroke:none;fill-rule:nonzero;fill:rgb(98.431373%,88.627452%,74.509805%);fill-opacity:1;" d="M 13.496094 15.511719 L 13.539062 15.519531 L 13.597656 15.632812 L 13.585938 15.675781 L 13.1875 15.871094 L 12.9375 15.992188 L 12.835938 16.027344 L 12.9375 16.246094 L 13.035156 16.457031 L 13.089844 16.445312 L 13.773438 16.105469 L 13.804688 16.113281 L 13.839844 16.203125 L 13.859375 16.234375 L 13.847656 16.28125 L 13.640625 16.378906 L 13.453125 16.476562 L 13.199219 16.597656 L 13.132812 16.632812 L 13.15625 16.699219 L 13.289062 16.960938 L 13.34375 17.082031 L 13.398438 17.0625 L 13.652344 16.941406 L 14.125 16.710938 L 14.167969 16.71875 L 14.222656 16.828125 L 14.210938 16.875 L 13.660156 17.148438 L 13.410156 17.269531 L 13.277344 17.335938 L 13.234375 17.324219 L 13.046875 16.949219 L 12.925781 16.699219 L 12.78125 16.410156 L 12.660156 16.160156 L 12.585938 16.003906 L 12.59375 15.949219 L 13.089844 15.707031 L 13.332031 15.585938 Z M 13.496094 15.511719 "/>
<path style=" stroke:none;fill-rule:nonzero;fill:rgb(98.431373%,88.627452%,74.509805%);fill-opacity:1;" d="M 12.351562 16.050781 L 12.40625 16.050781 L 12.464844 16.3125 L 12.585938 16.996094 L 12.671875 17.46875 L 12.671875 17.554688 L 12.519531 17.589844 L 12.484375 17.589844 L 12.453125 17.445312 L 12.363281 16.949219 L 12.351562 16.90625 L 12.054688 16.960938 L 11.605469 17.039062 L 11.617188 17.148438 L 11.714844 17.6875 L 11.714844 17.722656 L 11.570312 17.753906 L 11.515625 17.753906 L 11.394531 17.09375 L 11.265625 16.355469 L 11.253906 16.246094 L 11.441406 16.214844 L 11.460938 16.28125 L 11.5625 16.828125 L 11.5625 16.863281 L 12.15625 16.753906 L 12.320312 16.730469 L 12.222656 16.136719 L 12.222656 16.070312 Z M 12.351562 16.050781 "/>
<path style=" stroke:none;fill-rule:nonzero;fill:rgb(98.431373%,88.235295%,73.333335%);fill-opacity:1;" d="M 7.503906 14.640625 L 7.546875 14.664062 L 7.65625 14.761719 L 7.632812 14.804688 L 7.480469 14.972656 L 7.382812 15.082031 L 7.214844 15.257812 L 7.160156 15.324219 L 7.511719 15.3125 L 8.21875 15.277344 L 8.394531 15.445312 L 8.394531 15.464844 L 7.523438 15.5 L 7.492188 15.753906 L 7.390625 16.457031 L 7.382812 16.578125 L 7.324219 16.554688 L 7.195312 16.421875 L 7.269531 15.851562 L 7.324219 15.5 L 7.074219 15.511719 L 6.972656 15.519531 L 6.851562 15.652344 L 6.777344 15.742188 L 6.664062 15.851562 L 6.632812 15.894531 L 6.589844 15.871094 L 6.480469 15.773438 L 6.5 15.730469 L 6.65625 15.566406 L 6.765625 15.445312 L 6.777344 15.421875 L 6.796875 15.421875 L 6.820312 15.378906 L 6.917969 15.277344 L 6.996094 15.191406 L 7.128906 15.046875 L 7.28125 14.882812 L 7.359375 14.796875 L 7.4375 14.71875 Z M 7.503906 14.640625 "/>
<path style=" stroke:none;fill-rule:nonzero;fill:rgb(98.431373%,89.019608%,75.294119%);fill-opacity:1;" d="M 10.382812 16.160156 L 10.492188 16.160156 L 10.660156 16.179688 L 10.800781 16.234375 L 10.902344 16.3125 L 10.988281 16.410156 L 11.042969 16.542969 L 11.078125 16.664062 L 11.078125 16.71875 L 10.945312 16.71875 L 10.878906 16.710938 L 10.824219 16.542969 L 10.757812 16.445312 L 10.648438 16.378906 L 10.503906 16.347656 L 10.382812 16.347656 L 10.261719 16.378906 L 10.152344 16.457031 L 10.074219 16.554688 L 10 16.730469 L 9.964844 16.90625 L 9.964844 17.148438 L 10 17.28125 L 10.054688 17.390625 L 10.132812 17.480469 L 10.253906 17.546875 L 10.316406 17.566406 L 10.394531 17.578125 L 10.492188 17.578125 L 10.59375 17.554688 L 10.691406 17.488281 L 10.757812 17.414062 L 10.8125 17.292969 L 10.847656 17.203125 L 11.03125 17.214844 L 11.042969 17.269531 L 10.988281 17.425781 L 10.921875 17.535156 L 10.824219 17.644531 L 10.726562 17.710938 L 10.605469 17.753906 L 10.550781 17.765625 L 10.371094 17.765625 L 10.207031 17.730469 L 10.074219 17.675781 L 9.953125 17.589844 L 9.855469 17.457031 L 9.800781 17.335938 L 9.769531 17.226562 L 9.757812 17.148438 L 9.757812 16.886719 L 9.789062 16.710938 L 9.84375 16.566406 L 9.921875 16.421875 L 10.042969 16.289062 L 10.164062 16.214844 L 10.308594 16.171875 Z M 10.382812 16.160156 "/>
<path style=" stroke:none;fill-rule:nonzero;fill:rgb(98.431373%,89.019608%,75.294119%);fill-opacity:1;" d="M 8.765625 15.675781 L 9.054688 15.785156 L 9.351562 15.90625 L 9.855469 16.105469 L 9.878906 16.136719 L 9.824219 16.269531 L 9.777344 16.28125 L 9.480469 16.160156 L 9.339844 16.105469 L 9.316406 16.191406 L 9.183594 16.53125 L 9.007812 16.972656 L 8.867188 17.324219 L 8.832031 17.359375 L 8.679688 17.292969 L 8.667969 17.246094 L 8.691406 17.246094 L 8.710938 17.148438 L 8.910156 16.652344 L 9.097656 16.179688 L 9.152344 16.058594 L 9.152344 16.027344 L 8.757812 15.871094 L 8.699219 15.839844 L 8.757812 15.6875 Z M 8.765625 15.675781 "/>
<path style=" stroke:none;fill-rule:nonzero;fill:rgb(0.392157%,0.392157%,0.392157%);fill-opacity:1;" d="M 8.273438 10.242188 L 8.328125 10.242188 L 8.382812 10.449219 L 8.414062 10.636719 L 8.414062 10.703125 L 8.371094 10.800781 L 8.359375 10.933594 L 8.339844 10.945312 L 8.292969 10.933594 L 8.183594 10.933594 L 7.996094 11 L 7.941406 11.03125 L 7.929688 11.109375 L 7.863281 11.109375 L 7.84375 11.089844 L 7.820312 10.976562 L 7.765625 10.890625 L 7.710938 10.757812 L 7.699219 10.648438 L 7.742188 10.558594 L 7.855469 10.449219 L 8.019531 10.339844 Z M 8.273438 10.242188 "/>
<path style=" stroke:none;fill-rule:nonzero;fill:rgb(98.431373%,89.019608%,74.509805%);fill-opacity:1;" d="M 8.515625 15.488281 L 8.578125 15.511719 L 8.691406 15.574219 L 8.679688 15.621094 L 8.558594 15.828125 L 8.226562 16.355469 L 8.050781 16.644531 L 7.921875 16.851562 L 7.898438 16.886719 L 7.84375 16.863281 L 7.722656 16.796875 L 7.742188 16.742188 L 7.898438 16.488281 L 8.0625 16.226562 L 8.21875 15.972656 L 8.492188 15.53125 Z M 8.515625 15.488281 "/>
<path style=" stroke:none;fill-rule:nonzero;fill:rgb(0.392157%,0.392157%,0.392157%);fill-opacity:1;" d="M 9.613281 9.933594 L 9.648438 9.945312 L 9.757812 10.109375 L 9.800781 10.21875 L 9.8125 10.253906 L 9.8125 10.363281 L 9.769531 10.484375 L 9.714844 10.59375 L 9.59375 10.714844 L 9.492188 10.78125 L 9.316406 10.847656 L 9.117188 10.890625 L 9.085938 10.890625 L 9.019531 10.78125 L 9.03125 10.746094 L 9.140625 10.671875 L 9.273438 10.625 L 9.339844 10.582031 L 9.40625 10.503906 L 9.4375 10.429688 L 9.449219 10.296875 L 9.414062 10.207031 L 9.425781 10.152344 L 9.480469 10.097656 L 9.503906 10.097656 L 9.527344 10.054688 L 9.59375 9.964844 Z M 9.613281 9.933594 "/>
<path style=" stroke:none;fill-rule:nonzero;fill:rgb(98.431373%,89.019608%,74.901962%);fill-opacity:1;" d="M 11.5625 4.355469 L 11.738281 4.367188 L 11.746094 4.378906 L 11.746094 4.476562 L 11.683594 5.105469 L 11.605469 5.820312 L 11.582031 5.894531 L 11.40625 5.886719 L 11.394531 5.875 L 11.394531 5.765625 L 11.484375 4.960938 L 11.550781 4.367188 Z M 11.5625 4.355469 "/>
<path style=" stroke:none;fill-rule:nonzero;fill:rgb(0.392157%,0.392157%,0.392157%);fill-opacity:1;" d="M 8.007812 9.988281 L 8.03125 10 L 8.105469 10.175781 L 8.019531 10.230469 L 7.898438 10.308594 L 7.800781 10.382812 L 7.710938 10.472656 L 7.632812 10.59375 L 7.613281 10.660156 L 7.613281 10.800781 L 7.667969 10.902344 L 7.566406 10.933594 L 7.511719 10.933594 L 7.425781 10.78125 L 7.390625 10.691406 L 7.402344 10.59375 L 7.445312 10.484375 L 7.535156 10.363281 L 7.742188 10.152344 L 7.910156 10.03125 Z M 8.007812 9.988281 "/>
<path style=" stroke:none;fill-rule:nonzero;fill:rgb(0.392157%,0.392157%,0.392157%);fill-opacity:1;" d="M 14.507812 5.796875 L 14.519531 5.828125 L 14.398438 6.160156 L 14.289062 6.457031 L 14.246094 6.433594 L 14.070312 6.292969 L 13.914062 6.183594 L 13.914062 6.160156 L 14.144531 6.015625 L 14.453125 5.828125 Z M 14.507812 5.796875 "/>
<path style=" stroke:none;fill-rule:nonzero;fill:rgb(0.392157%,0.392157%,0.392157%);fill-opacity:1;" d="M 9.074219 4.894531 L 9.097656 4.894531 L 9.21875 5.050781 L 9.371094 5.234375 L 9.492188 5.390625 L 9.515625 5.445312 L 9.382812 5.5 L 9.109375 5.597656 L 9.085938 5.597656 Z M 9.074219 4.894531 "/>
<path style=" stroke:none;fill-rule:nonzero;fill:rgb(0.392157%,0.392157%,0.392157%);fill-opacity:1;" d="M 10.492188 10.933594 L 10.527344 10.945312 L 10.515625 11.042969 L 10.484375 11.164062 L 10.460938 11.175781 L 10.054688 11.164062 L 10.03125 11.097656 L 10.03125 10.976562 L 10.042969 10.96875 L 10.132812 10.957031 L 10.4375 10.945312 Z M 10.492188 10.933594 "/>
<path style=" stroke:none;fill-rule:nonzero;fill:rgb(9.411765%,4.705882%,0.392157%);fill-opacity:1;" d="M 8.503906 9.21875 L 8.636719 9.21875 L 8.699219 9.25 L 8.710938 9.304688 L 8.699219 9.371094 L 8.722656 9.460938 L 8.722656 9.558594 L 8.679688 9.601562 L 8.589844 9.59375 L 8.492188 9.535156 L 8.449219 9.480469 L 8.394531 9.414062 L 8.402344 9.371094 L 8.46875 9.273438 Z M 8.503906 9.21875 "/>
<path style=" stroke:none;fill-rule:nonzero;fill:rgb(0.392157%,0.392157%,0.392157%);fill-opacity:1;" d="M 8.988281 10.96875 L 9.0625 10.988281 L 9.238281 10.976562 L 9.316406 10.96875 L 9.351562 11.011719 L 9.382812 11.097656 L 9.382812 11.132812 L 9.316406 11.144531 L 8.933594 11.132812 L 8.800781 11.121094 L 8.8125 11.078125 L 8.921875 11 Z M 8.988281 10.96875 "/>
<path style=" stroke:none;fill-rule:nonzero;fill:rgb(98.039216%,49.803922%,1.176471%);fill-opacity:1;" d="M 13.035156 11.1875 L 13.132812 11.1875 L 13.300781 11.21875 L 13.453125 11.242188 L 13.441406 11.296875 L 13.375 11.351562 L 13.355469 11.363281 L 13.046875 11.363281 L 12.980469 11.328125 L 12.957031 11.308594 L 12.96875 11.230469 Z M 13.035156 11.1875 "/>
<path style=" stroke:none;fill-rule:nonzero;fill:rgb(0.392157%,0.392157%,0.392157%);fill-opacity:1;" d="M 15.519531 11 L 15.566406 11.023438 L 15.652344 11.132812 L 15.742188 11.265625 L 15.863281 11.507812 L 15.863281 11.550781 L 15.785156 11.539062 L 15.695312 11.460938 L 15.597656 11.320312 L 15.511719 11.054688 Z M 15.519531 11 "/>
<path style=" stroke:none;fill-rule:nonzero;fill:rgb(0.392157%,0.392157%,0.392157%);fill-opacity:1;" d="M 9.164062 10.1875 L 9.238281 10.1875 L 9.304688 10.21875 L 9.351562 10.308594 L 9.351562 10.40625 L 9.316406 10.484375 L 9.296875 10.503906 L 9.25 10.503906 L 9.164062 10.285156 Z M 9.164062 10.1875 "/>
<path style=" stroke:none;fill-rule:nonzero;fill:rgb(0.392157%,0.392157%,0.392157%);fill-opacity:1;" d="M 8.800781 9.59375 L 8.84375 9.601562 L 8.878906 9.636719 L 8.867188 9.691406 L 8.820312 9.757812 L 8.789062 9.8125 L 8.757812 9.84375 L 8.699219 9.835938 L 8.601562 9.757812 L 8.535156 9.703125 L 8.535156 9.667969 L 8.613281 9.679688 L 8.636719 9.691406 L 8.699219 9.691406 L 8.734375 9.679688 L 8.757812 9.625 Z M 8.800781 9.59375 "/>
<path style=" stroke:none;fill-rule:nonzero;fill:rgb(0.392157%,0.392157%,0.392157%);fill-opacity:1;" d="M 8.910156 10.8125 L 8.953125 10.824219 L 8.988281 10.867188 L 8.964844 10.910156 L 8.789062 11 L 8.722656 11.042969 L 8.679688 11.042969 L 8.636719 10.957031 L 8.644531 10.921875 Z M 8.910156 10.8125 "/>
<path style=" stroke:none;fill-rule:nonzero;fill:rgb(0.392157%,0.392157%,0.392157%);fill-opacity:1;" d="M 8.183594 10.988281 L 8.273438 10.988281 L 8.292969 11 L 8.28125 11.042969 L 8.21875 11.089844 L 8.128906 11.121094 L 8.007812 11.121094 L 7.996094 11.109375 L 7.996094 11.054688 L 8.085938 11.011719 Z M 8.183594 10.988281 "/>
<path style=" stroke:none;fill-rule:nonzero;fill:rgb(0.392157%,0.392157%,0.392157%);fill-opacity:1;" d="M 8.480469 10.746094 L 8.691406 10.746094 L 8.691406 10.78125 L 8.601562 10.800781 L 8.523438 10.867188 L 8.480469 10.933594 L 8.460938 10.933594 L 8.449219 10.890625 L 8.46875 10.757812 Z M 8.480469 10.746094 "/>
<path style=" stroke:none;fill-rule:nonzero;fill:rgb(0.392157%,0.392157%,0.392157%);fill-opacity:1;" d="M 8.492188 11 L 8.546875 11.011719 L 8.601562 11.089844 L 8.601562 11.109375 L 8.460938 11.109375 L 8.449219 11.097656 L 8.449219 11.042969 Z M 8.492188 11 "/>
<path style=" stroke:none;fill-rule:nonzero;fill:rgb(0.392157%,0.392157%,0.392157%);fill-opacity:1;" d="M 7.65625 10.96875 L 7.710938 10.976562 L 7.753906 11.023438 L 7.753906 11.066406 L 7.644531 11.066406 L 7.589844 11.042969 L 7.601562 11 Z M 7.65625 10.96875 "/>
</g>
</svg>
